<svg width="72" height="72" viewBox="0 0 72 72" fill="none" xmlns="http://www.w3.org/2000/svg">
<g filter="url(#filter0_d_459_4137)">
<circle cx="36" cy="34" r="32" fill="#41E6A1"/>
<path d="M40.1601 48.7202C28.9601 50.3201 25.1796 46.148 22.2401 48.7202C21.059 49.7536 20.7954 53.7853 18.08 52.8802C15.2 51.9202 15.8054 48.4002 15.2 46.8002C14.5946 45.2002 10.6725 42.3678 12.64 40.4002C14.6076 38.4326 18.2854 41.7948 19.6801 40.4002C21.9201 38.1602 22.4487 35.5031 23.514 33.0402C23.514 33.0402 14.56 31.4463 20.96 26.3202C27.3601 21.1941 32.4801 22.6015 32.4801 22.6015C37.5454 20.5893 43.7647 21.9159 47.2001 28.2402C47.4364 28.6752 47.6587 29.1019 47.8673 29.5202C48.7988 31.3883 49.4574 33.0907 49.8787 34.6402C51.04 34.6402 52.64 29.5202 55.2 34.6402C58.2189 40.6779 50.4162 39.7602 50.4162 39.7602C49.8857 45.1832 45.3367 47.7581 40.1601 48.7202Z" fill="#F28231"/>
<path d="M25.7698 39.8678C26.1679 44.0075 28.209 46.9431 30.5309 46.6968C31.8823 46.5534 31.7419 45.4565 31.3283 44.6562C30.8489 43.7287 29.6733 42.4009 28.8027 40.4449C27.9727 38.5802 25.5743 37.8361 25.7698 39.8678Z" fill="white"/>
<path d="M22.9398 46.2627C23.4671 46.4616 24.0139 46.4479 24.3162 46.4001C25.9648 46.1397 21.3782 45.6735 22.9398 46.2627Z" fill="white"/>
<path fill-rule="evenodd" clip-rule="evenodd" d="M44.0003 38.3523C44.6792 38.3523 45.0186 37.9952 45.1318 37.4307C45.2698 36.7422 44.6905 36.0511 44.0003 36.0484C43.4344 36.0461 42.9819 36.4055 42.8688 36.97C42.7308 37.6585 43.31 38.3523 44.0003 38.3523ZM35.9362 39.5043C36.6151 39.5043 36.9545 39.1472 37.0677 38.5827C37.2057 37.8941 36.6264 37.2031 35.9362 37.2003C35.3703 37.198 34.9178 37.5574 34.8047 38.1219C34.6667 38.8105 35.2459 39.5043 35.9362 39.5043ZM42.5891 39.8117L38.5507 40.512L38.5524 40.9176C38.5552 41.6159 38.9095 42.1126 39.4173 42.3825C39.8965 42.6374 40.4838 42.6794 41.0079 42.5862C41.5319 42.493 42.0677 42.2514 42.4283 41.8491C42.8108 41.4226 42.9712 40.8361 42.7283 40.1849L42.5891 39.8117Z" fill="white"/>
<path fill-rule="evenodd" clip-rule="evenodd" d="M52.1279 22.7998C52.3754 22.7998 52.5759 23.0004 52.5759 23.2478C52.5759 24.5367 52.4702 25.5953 52.3706 26.5921C52.1327 28.9732 51.93 31.002 53.2879 34.9749C54.6289 38.8987 53.3436 42.1785 52.1793 45.1497L52.1411 45.2472C50.9514 48.2839 49.9414 50.9608 51.4407 53.9594C51.5514 54.1807 51.4617 54.4498 51.2404 54.5604C51.0191 54.6711 50.75 54.5814 50.6393 54.3601C48.9401 50.9616 50.1344 47.913 51.3037 44.9283L51.3119 44.9074C52.4961 41.8847 53.6745 38.8767 52.44 35.2647C51.0163 31.0991 51.2413 28.8307 51.4842 26.3814C51.5807 25.4088 51.6799 24.4076 51.6799 23.2478C51.6799 23.0004 51.8805 22.7998 52.1279 22.7998Z" fill="white"/>
<path d="M57.9642 17.9514C57.8133 21.2819 55.0904 25.3561 51.9654 25.2146C48.8405 25.0731 46.4969 20.7695 46.6478 17.4389C46.7986 14.1084 49.4541 11.5232 52.579 11.6647C55.704 11.8062 58.115 14.6209 57.9642 17.9514Z" fill="#F28231"/>
<path d="M52.0195 24.0235L53.1484 26.2008C53.2805 26.4554 53.0873 26.7575 52.8008 26.7446L50.9955 26.6628C50.7089 26.6498 50.5439 26.3315 50.6984 26.0898L52.0195 24.0235Z" fill="#F28231"/>
<path fill-rule="evenodd" clip-rule="evenodd" d="M54.2895 14.926C54.5105 14.6971 54.8751 14.6907 55.104 14.9116C55.4625 15.2577 56.4688 16.2654 56.0842 18.1002C56.0189 18.4116 55.7136 18.611 55.4023 18.5458C55.0909 18.4805 54.8914 18.1752 54.9567 17.8639C55.2155 16.6293 54.5799 16.0069 54.3039 15.7405C54.075 15.5195 54.0686 15.1549 54.2895 14.926Z" fill="white"/>
<path d="M32.9328 21.435C34.0627 17.9266 38.7796 17.3431 40.7303 20.4705C41.6402 21.9292 41.4801 23.7791 39.8623 24.3609C39.1955 24.6007 38.3606 24.812 37.3248 24.9401C36.2891 25.0683 35.4278 25.0668 34.7227 24.9967C33.0119 24.8267 32.4058 23.0715 32.9328 21.435Z" fill="white"/>
<ellipse cx="35.7535" cy="12.2362" rx="1.91999" ry="1.92" transform="rotate(-7.05177 35.7535 12.2362)" fill="#F28231"/>
<path d="M37.0169 17.2397C37.0603 17.5905 36.8111 17.9101 36.4603 17.9535C36.1096 17.9968 35.79 17.7477 35.7466 17.3969C35.7032 17.0461 35.9524 16.7265 36.3032 16.6831C36.654 16.6397 36.9735 16.8889 37.0169 17.2397Z" fill="#F28231"/>
<path d="M37.3314 19.7804C37.3748 20.1311 37.1256 20.4507 36.7748 20.4941C36.424 20.5375 36.1044 20.2883 36.061 19.9375C36.0176 19.5867 36.2668 19.2672 36.6176 19.2238C36.9684 19.1804 37.288 19.4296 37.3314 19.7804Z" fill="#F28231"/>
<path d="M37.6454 22.321C37.6888 22.6718 37.4396 22.9914 37.0888 23.0348C36.738 23.0781 36.4185 22.829 36.3751 22.4782C36.3317 22.1274 36.5809 21.8078 36.9317 21.7644C37.2825 21.721 37.602 21.9702 37.6454 22.321Z" fill="#F28231"/>
</g>
<defs>
<filter id="filter0_d_459_4137" x="0" y="0" width="72" height="72" filterUnits="userSpaceOnUse" color-interpolation-filters="sRGB">
<feFlood flood-opacity="0" result="BackgroundImageFix"/>
<feColorMatrix in="SourceAlpha" type="matrix" values="0 0 0 0 0 0 0 0 0 0 0 0 0 0 0 0 0 0 127 0" result="hardAlpha"/>
<feOffset dy="2"/>
<feGaussianBlur stdDeviation="2"/>
<feComposite in2="hardAlpha" operator="out"/>
<feColorMatrix type="matrix" values="0 0 0 0 0 0 0 0 0 0 0 0 0 0 0 0 0 0 0.15 0"/>
<feBlend mode="normal" in2="BackgroundImageFix" result="effect1_dropShadow_459_4137"/>
<feBlend mode="normal" in="SourceGraphic" in2="effect1_dropShadow_459_4137" result="shape"/>
</filter>
</defs>
</svg>
