<svg width="72" height="72" viewBox="0 0 72 72" fill="none" xmlns="http://www.w3.org/2000/svg">
<g filter="url(#filter0_d_459_4135)">
<path d="M68 34C68 51.6731 53.6731 66 36 66C18.3269 66 4 51.6731 4 34C4 16.3269 18.3269 2 36 2C53.6731 2 68 16.3269 68 34Z" fill="#8EFCD4"/>
<path d="M38.1441 38.2683C39.692 42.8661 44.041 54.5112 48.4079 54.6019C52.1934 54.6805 47.4793 48.6888 52.0181 46.7511C52.6315 46.4893 53.2532 46.1663 53.574 45.5816C54.9896 43.002 52.7111 41.571 53.6211 39.3735C54.088 36.4277 56.8482 35.8028 57.9069 33.824C58.2807 33.1255 57.9879 32.3098 57.5922 31.6235C54.9825 27.0976 61.3248 27.1755 59.2723 24.35C57.2292 21.5373 45.6837 27.1616 40.0419 31.2503C39.3797 31.7303 38.484 31.6113 38.1401 30.8692C37.7248 29.9729 37.3319 28.9438 36.8965 28.4052C36.1349 27.4631 44.3213 22.0877 40.7487 20.9862C30.0311 17.6818 28.6864 22.1374 26.7102 21.7386C18.7026 20.1227 17.8143 24.1174 14.5802 24.6545C9.63226 25.4763 14.0372 41.023 26.7102 41.4021C27.5994 41.4503 26.1086 43.6974 33.591 45.3141C33.758 45.3502 33.9491 45.3012 34.0182 45.145C34.6215 43.7826 31.4395 40.7149 32.2882 40.4757C33.9508 40.007 34.618 38.8285 36.0001 37.5886C36.7294 36.9343 37.8314 37.3398 38.1441 38.2683Z" fill="#B461FF"/>
<path d="M49.7646 30.87C49.8581 31.0196 49.9302 31.1931 49.9788 31.3912C50.6279 34.0362 48.321 28.5606 49.7646 30.87Z" fill="white"/>
<path d="M45.3397 44.0425C45.4633 43.9991 45.5868 43.9389 45.7099 43.8611C48.0773 42.3659 42.6983 44.9714 45.3397 44.0425Z" fill="white"/>
<path d="M47.507 37.2332C47.7429 36.62 47.52 36.092 46.9256 35.7416C45.0389 34.6292 44.1725 38.0682 46.2781 38.004C46.8582 37.9863 47.315 37.7325 47.507 37.2332Z" fill="white"/>
<ellipse rx="3.82303" ry="3.82304" transform="matrix(0.955612 0.294629 -0.294628 0.955612 21.6734 28.7446)" fill="white"/>
<ellipse rx="1.53153" ry="1.53153" transform="matrix(0.955612 0.294628 -0.29463 0.955611 20.9342 27.7546)" fill="#B461FF"/>
</g>
<defs>
<filter id="filter0_d_459_4135" x="0" y="0" width="72" height="72" filterUnits="userSpaceOnUse" color-interpolation-filters="sRGB">
<feFlood flood-opacity="0" result="BackgroundImageFix"/>
<feColorMatrix in="SourceAlpha" type="matrix" values="0 0 0 0 0 0 0 0 0 0 0 0 0 0 0 0 0 0 127 0" result="hardAlpha"/>
<feOffset dy="2"/>
<feGaussianBlur stdDeviation="2"/>
<feComposite in2="hardAlpha" operator="out"/>
<feColorMatrix type="matrix" values="0 0 0 0 0 0 0 0 0 0 0 0 0 0 0 0 0 0 0.15 0"/>
<feBlend mode="normal" in2="BackgroundImageFix" result="effect1_dropShadow_459_4135"/>
<feBlend mode="normal" in="SourceGraphic" in2="effect1_dropShadow_459_4135" result="shape"/>
</filter>
</defs>
</svg>
