<svg width="144" height="144" viewBox="0 0 144 144" fill="none" xmlns="http://www.w3.org/2000/svg">
<g filter="url(#filter0_d_459_4138)">
<path d="M132 68C132 101.137 105.137 128 71.9998 128C38.8628 128 11.9998 101.137 11.9998 68C11.9998 34.863 38.8628 8 71.9998 8C105.137 8 132 34.863 132 68Z" fill="#FF6B7D"/>
</g>
<path d="M36.8693 80.7213C36.7814 80.848 36.5841 80.8035 36.5592 80.6513L35.5097 74.2269L40.5781 75.3717L36.8693 80.7213Z" fill="white"/>
<path d="M44.3153 82.9113C44.2275 83.038 44.0301 82.9934 44.0052 82.8413L42.9557 76.4169L48.0242 77.5617L44.3153 82.9113Z" fill="white"/>
<path d="M52.0929 84.3107C52.0051 84.4374 51.8077 84.3928 51.7828 84.2407L50.7333 77.8163L55.8018 78.9611L52.0929 84.3107Z" fill="white"/>
<path fill-rule="evenodd" clip-rule="evenodd" d="M86.4234 64.8549C87.0394 68.3732 90.0348 70.8159 92.1187 71.6888C94.3683 72.6311 95.9933 72.906 97.2089 72.7603C97.653 72.7071 97.8556 72.2207 97.6784 71.81C94.0232 63.3372 99.9378 56.3441 102.148 54.1324C102.462 53.8186 103.008 54.0641 103.103 54.529C103.608 56.9956 104.812 59.0418 105.938 60.9536L105.94 60.9565C107.581 63.744 109.053 66.2451 107.94 69.3455C111.201 68.7936 113.272 70.5268 115.62 72.491C117.213 73.8246 118.934 75.2648 121.241 76.1682C121.683 76.3412 121.829 76.9217 121.464 77.1754C118.939 78.9328 111.224 83.4066 103.644 78.6985C103.367 78.5261 102.607 78.0133 101.988 77.5952L101.988 77.5951L101.71 77.408C101.4 77.1987 100.987 77.2596 100.743 77.5441C96.678 82.2999 91.1512 86.3109 84.7734 89.1997C85.7867 93.2093 87.4286 98.4927 89.8185 102.761C90.2752 103.577 89.4986 104.597 88.6263 104.261C81.0092 101.326 75.2922 96.5967 71.8926 93.2229C69.3725 93.6878 66.7953 93.9866 64.1869 94.1029C61.5999 95.7086 56.0017 99.4452 52.4991 103.709C52.0304 104.28 51.0805 104.095 50.9484 103.368C50.1164 98.7934 50.9157 95.5277 52.085 93.2977C47.9192 92.5414 43.7756 91.2705 39.7565 89.4217C35.8141 87.6082 36.6174 85.2195 37.167 84.25C37.3223 83.976 37.6451 83.8856 37.9406 83.9943C41.2918 85.2273 61.0867 92.0215 63.7314 81.5061C63.7455 81.4498 63.7568 81.3889 63.7584 81.3309C63.7743 80.7469 63.3339 80.731 62.7007 80.7082L62.6572 80.7066C56.4179 80.4786 31.55 79.2843 29.0856 68.2902C26.309 55.9031 47.7532 32.7261 71.4811 46.6478C78.5763 50.8108 85.0326 56.9123 86.4234 64.8549Z" fill="#050002"/>
<path d="M59.9334 71.3875C59.3847 72.6974 57.8781 73.3145 56.5682 72.7658C55.2583 72.2171 54.6412 70.7105 55.1899 69.4006C55.7386 68.0907 57.2452 67.4736 58.5551 68.0223C59.865 68.571 60.4821 70.0776 59.9334 71.3875Z" fill="white"/>
<path d="M70.1631 40.1842C72.5669 41.828 75.9816 39.1065 78.1327 36.9288C78.3858 36.6726 79.1165 37.129 78.9983 37.4692C78.1382 39.9452 77.3404 43.4275 78.7756 45.265C80.1457 47.0191 84.1605 47.0028 86.4155 46.8398C86.8105 46.8113 87.0159 47.3627 86.691 47.5893L79.6462 52.5032C79.6045 52.5322 79.5603 52.5533 79.5106 52.5637C78.977 52.676 75.54 53.2324 70.4911 50.2636C65.6688 47.4282 64.7062 44.0121 64.5788 43.4601C64.5668 43.4079 64.5678 43.3562 64.5781 43.3037L66.1908 35.0867C66.2677 34.6949 66.8705 34.6634 67.0037 35.0398C67.5856 36.6834 68.6658 39.1603 70.1631 40.1842Z" fill="white"/>
<ellipse cx="80.2547" cy="34.4348" rx="1.56219" ry="1.56219" transform="rotate(25.442 80.2547 34.4348)" fill="white"/>
<ellipse cx="66.5662" cy="31.5896" rx="1.56219" ry="1.56219" transform="rotate(25.442 66.5662 31.5896)" fill="white"/>
<ellipse rx="1.56219" ry="1.56219" transform="matrix(0.903021 0.429597 -0.429598 0.90302 89.6129 45.9168)" fill="white"/>
<defs>
<filter id="filter0_d_459_4138" x="-0.000244141" y="0" width="144" height="144" filterUnits="userSpaceOnUse" color-interpolation-filters="sRGB">
<feFlood flood-opacity="0" result="BackgroundImageFix"/>
<feColorMatrix in="SourceAlpha" type="matrix" values="0 0 0 0 0 0 0 0 0 0 0 0 0 0 0 0 0 0 127 0" result="hardAlpha"/>
<feOffset dy="4"/>
<feGaussianBlur stdDeviation="6"/>
<feComposite in2="hardAlpha" operator="out"/>
<feColorMatrix type="matrix" values="0 0 0 0 0 0 0 0 0 0 0 0 0 0 0 0 0 0 0.25 0"/>
<feBlend mode="normal" in2="BackgroundImageFix" result="effect1_dropShadow_459_4138"/>
<feBlend mode="normal" in="SourceGraphic" in2="effect1_dropShadow_459_4138" result="shape"/>
</filter>
</defs>
</svg>
