<svg width="72" height="72" viewBox="0 0 72 72" fill="none" xmlns="http://www.w3.org/2000/svg">
<g filter="url(#filter0_d_459_4136)">
<circle cx="36" cy="34" r="32" fill="#34E0E0"/>
<path d="M61.6001 38.4802C60.9494 42.4476 56.5759 41.2584 45.9204 42.4569C43.7893 52.345 45.9204 58.7412 41.7601 59.2802C37.5998 59.8193 33.2557 48.1475 31.2 45.2002C21.8504 47.3776 11.3601 46.8002 11.3601 42.4569C11.3601 39.7602 21.4196 35.1609 24.1604 31.7602C17.1942 18.9024 18.3652 15.3587 19.7845 14.8358C21.7724 14.1034 28.521 17.6603 34.8866 22.3693C40.3605 14.8359 45.8651 10.7049 47.9632 12.7703C50.0614 14.8357 47.355 22.57 47.355 29.268C48.2686 30.4016 62.2508 34.5129 61.6001 38.4802Z" fill="#F07575"/>
<path fill-rule="evenodd" clip-rule="evenodd" d="M32.2532 35.4653C33.0113 35.4653 33.626 34.8507 33.626 34.0925C33.626 33.3343 33.0113 32.7197 32.2532 32.7197C31.495 32.7197 30.8804 33.3343 30.8804 34.0925C30.8804 34.8507 31.495 35.4653 32.2532 35.4653ZM39.2932 38.6654C40.0514 38.6654 40.666 38.0508 40.666 37.2926C40.666 36.5344 40.0514 35.9198 39.2932 35.9198C38.535 35.9198 37.9204 36.5344 37.9204 37.2926C37.9204 38.0508 38.535 38.6654 39.2932 38.6654Z" fill="white"/>
<path fill-rule="evenodd" clip-rule="evenodd" d="M32.1786 38.9035C31.9529 38.3745 31.9891 37.7655 32.4253 37.2202L33.1749 37.8199C32.9711 38.0747 32.9673 38.3056 33.0616 38.5267C33.1686 38.7775 33.4179 39.036 33.7514 39.2195C34.0851 39.403 34.4363 39.4747 34.7031 39.4313C34.9376 39.3932 35.1246 39.2689 35.2248 38.9683L36.1355 39.2719C35.9157 39.9313 35.4226 40.287 34.8571 40.3789C34.3239 40.4655 33.7551 40.3172 33.2888 40.0607C32.8223 39.8041 32.3916 39.4027 32.1786 38.9035Z" fill="white"/>
<path d="M46.88 36.5598C46.88 36.9133 46.5934 37.1998 46.24 37.1998C45.8865 37.1998 45.6 36.9133 45.6 36.5598C45.6 36.2064 45.8865 35.9198 46.24 35.9198C46.5934 35.9198 46.88 36.2064 46.88 36.5598Z" fill="white"/>
<path d="M50.72 37.1998C50.72 37.5533 50.4335 37.8398 50.08 37.8398C49.7265 37.8398 49.44 37.5533 49.44 37.1998C49.44 36.8464 49.7265 36.5598 50.08 36.5598C50.4335 36.5598 50.72 36.8464 50.72 37.1998Z" fill="white"/>
<path d="M54.24 37.8398C54.24 38.1933 53.9535 38.4798 53.6 38.4798C53.2465 38.4798 52.96 38.1933 52.96 37.8398C52.96 37.4864 53.2465 37.1998 53.6 37.1998C53.9535 37.1998 54.24 37.4864 54.24 37.8398Z" fill="white"/>
<path d="M57.76 38.4798C57.76 38.8333 57.4735 39.1198 57.12 39.1198C56.7665 39.1198 56.48 38.8333 56.48 38.4798C56.48 38.1264 56.7665 37.8398 57.12 37.8398C57.4735 37.8398 57.76 38.1264 57.76 38.4798Z" fill="white"/>
<path d="M39.84 45.5198C39.84 45.8733 39.5534 46.1598 39.2 46.1598C38.8465 46.1598 38.56 45.8733 38.56 45.5198C38.56 45.1664 38.8465 44.8798 39.2 44.8798C39.5534 44.8798 39.84 45.1664 39.84 45.5198Z" fill="white"/>
<path d="M40.48 48.7198C40.48 49.0733 40.1934 49.3598 39.84 49.3598C39.4865 49.3598 39.2 49.0733 39.2 48.7198C39.2 48.3664 39.4865 48.0798 39.84 48.0798C40.1934 48.0798 40.48 48.3664 40.48 48.7198Z" fill="white"/>
<path d="M41.12 51.9198C41.12 52.2733 40.8334 52.5598 40.48 52.5598C40.1265 52.5598 39.84 52.2733 39.84 51.9198C39.84 51.5664 40.1265 51.2798 40.48 51.2798C40.8334 51.2798 41.12 51.5664 41.12 51.9198Z" fill="white"/>
<path d="M41.76 55.1198C41.76 55.4733 41.4734 55.7598 41.12 55.7598C40.7665 55.7598 40.48 55.4733 40.48 55.1198C40.48 54.7664 40.7665 54.4798 41.12 54.4798C41.4734 54.4798 41.76 54.7664 41.76 55.1198Z" fill="white"/>
<path d="M45.8033 16.736C45.6039 17.0278 45.2057 17.1028 44.9139 16.9034C44.622 16.704 44.5471 16.3057 44.7464 16.0139C44.9458 15.722 45.3441 15.6471 45.6359 15.8465C45.9278 16.0459 46.0027 16.4441 45.8033 16.736Z" fill="white"/>
<path d="M43.8868 19.7391C43.6874 20.0309 43.2891 20.1059 42.9973 19.9065C42.7054 19.7071 42.6305 19.3089 42.8299 19.017C43.0293 18.7252 43.4275 18.6502 43.7193 18.8496C44.0112 19.049 44.0861 19.4472 43.8868 19.7391Z" fill="white"/>
<path d="M42.2636 22.7422C42.0642 23.0341 41.666 23.109 41.3741 22.9096C41.0823 22.7102 41.0073 22.312 41.2067 22.0201C41.4061 21.7283 41.8044 21.6533 42.0962 21.8527C42.3881 22.0521 42.463 22.4504 42.2636 22.7422Z" fill="white"/>
<path d="M40.6933 26.386C40.4939 26.6778 40.0957 26.7528 39.8038 26.5534C39.512 26.354 39.437 25.9557 39.6364 25.6639C39.8358 25.372 40.2341 25.2971 40.5259 25.4965C40.8178 25.6959 40.8927 26.0941 40.6933 26.386Z" fill="white"/>
<path d="M23.3359 19.0189C23.5382 19.3088 23.4672 19.7077 23.1774 19.91C22.8875 20.1123 22.4886 20.0413 22.2863 19.7515C22.084 19.4617 22.1549 19.0627 22.4448 18.8604C22.7346 18.6581 23.1336 18.7291 23.3359 19.0189Z" fill="white"/>
<path d="M25.4653 21.8751C25.6676 22.165 25.5966 22.5639 25.3068 22.7662C25.0169 22.9685 24.618 22.8976 24.4157 22.6077C24.2134 22.3179 24.2843 21.9189 24.5742 21.7166C24.864 21.5143 25.263 21.5853 25.4653 21.8751Z" fill="white"/>
<path d="M27.595 24.7313C27.7973 25.0211 27.7263 25.4201 27.4365 25.6224C27.1466 25.8247 26.7477 25.7537 26.5454 25.4639C26.3431 25.174 26.414 24.7751 26.7039 24.5728C26.9937 24.3705 27.3927 24.4415 27.595 24.7313Z" fill="white"/>
<path d="M29.9515 26.9892C30.1538 27.2791 30.0829 27.678 29.793 27.8803C29.5032 28.0826 29.1042 28.0117 28.9019 27.7218C28.6996 27.432 28.7706 27.033 29.0604 26.8307C29.3503 26.6284 29.7492 26.6994 29.9515 26.9892Z" fill="white"/>
<path d="M16.2872 41.7548C16.6317 41.6758 16.975 41.8911 17.054 42.2356C17.133 42.5801 16.9177 42.9234 16.5732 43.0024C16.2286 43.0814 15.8853 42.8661 15.8064 42.5216C15.7274 42.1771 15.9427 41.8337 16.2872 41.7548Z" fill="white"/>
<path d="M19.7331 40.8505C20.0776 40.7715 20.421 40.9868 20.4999 41.3313C20.5789 41.6758 20.3636 42.0191 20.0191 42.0981C19.6746 42.1771 19.3313 41.9618 19.2523 41.6173C19.1733 41.2728 19.3886 40.9294 19.7331 40.8505Z" fill="white"/>
<path d="M23.179 39.9462C23.5236 39.8672 23.8669 40.0825 23.9459 40.427C24.0248 40.7716 23.8096 41.1149 23.465 41.1938C23.1205 41.2728 22.7772 41.0575 22.6982 40.713C22.6192 40.3685 22.8345 40.0252 23.179 39.9462Z" fill="white"/>
<path d="M26.1556 38.6071C26.5001 38.5281 26.8435 38.7434 26.9224 39.0879C27.0014 39.4324 26.7861 39.7757 26.4416 39.8547C26.0971 39.9337 25.7538 39.7184 25.6748 39.3739C25.5958 39.0294 25.8111 38.686 26.1556 38.6071Z" fill="white"/>
</g>
<defs>
<filter id="filter0_d_459_4136" x="0" y="0" width="72" height="72" filterUnits="userSpaceOnUse" color-interpolation-filters="sRGB">
<feFlood flood-opacity="0" result="BackgroundImageFix"/>
<feColorMatrix in="SourceAlpha" type="matrix" values="0 0 0 0 0 0 0 0 0 0 0 0 0 0 0 0 0 0 127 0" result="hardAlpha"/>
<feOffset dy="2"/>
<feGaussianBlur stdDeviation="2"/>
<feComposite in2="hardAlpha" operator="out"/>
<feColorMatrix type="matrix" values="0 0 0 0 0 0 0 0 0 0 0 0 0 0 0 0 0 0 0.15 0"/>
<feBlend mode="normal" in2="BackgroundImageFix" result="effect1_dropShadow_459_4136"/>
<feBlend mode="normal" in="SourceGraphic" in2="effect1_dropShadow_459_4136" result="shape"/>
</filter>
</defs>
</svg>
