<svg width="72" height="72" viewBox="0 0 72 72" fill="none" xmlns="http://www.w3.org/2000/svg">
<g filter="url(#filter0_d_459_4134)">
<path d="M68 34C68 51.6731 53.6731 66 36 66C18.3269 66 4 51.6731 4 34C4 16.3269 18.3269 2 36 2C53.6731 2 68 16.3269 68 34Z" fill="#FFA5BA"/>
</g>
<path d="M9.37012 33.432C10.2213 34.8435 13.0177 38.7179 17.7545 38.0711C17.7545 38.0711 19.2465 45.1781 27.6201 47.7551C25.7982 50.496 23.7192 53.6363 22.8784 54.9734C22.7164 55.231 22.9053 55.5563 23.2088 55.5355C27.917 55.2135 32.1678 52.3503 34.8985 48.7297C37.1578 48.5369 40.6353 47.9476 42.9299 47.2956L50.6719 51.1833C52.327 50.0799 49.5808 44.7601 49.5808 44.7601C58.9926 40.117 60.1614 34.8879 59.5455 31.6031C57.5615 21.0215 41.1115 17.6883 32.2125 26.5875C29.0959 29.704 28.4285 32.8348 27.9382 35.1348C27.4786 37.2906 27.1746 38.7164 25.1557 38.7164C23.5484 38.7164 22.2601 37.859 21.2629 36.7396C26.0289 33.3908 24.4978 28.0642 23.8548 26.3808C23.7698 26.1587 23.4488 26.1594 23.3008 26.366C22.515 27.4624 21.4786 28.2002 20.5102 28.8894L20.5092 28.8902L20.5087 28.8905C19.0968 29.8954 17.8298 30.7971 17.6969 32.5571C16.2224 31.5746 14.8303 31.9698 13.2528 32.4176C12.1817 32.7218 11.0251 33.0502 9.69925 32.988C9.44552 32.9762 9.24732 33.2283 9.37012 33.432Z" fill="#0546C3"/>
<path d="M9.37012 33.432C10.2213 34.8435 13.0178 38.7179 17.7545 38.0711C17.7545 38.0711 19.2465 45.1781 27.6201 47.7551C25.7982 50.496 23.7192 53.6363 22.8784 54.9734C22.7164 55.231 22.9053 55.5563 23.2088 55.5355C27.917 55.2135 32.1678 52.3503 34.8985 48.7297C37.1578 48.5369 40.6353 47.9476 42.9299 47.2956L50.6719 51.1833C52.327 50.0799 49.5809 44.7601 49.5809 44.7601C58.9926 40.117 60.1614 34.8879 59.5455 31.6031C57.5615 21.0215 41.1115 17.6883 32.2125 26.5875C29.0959 29.704 28.4285 32.8348 27.9382 35.1348C27.4786 37.2906 27.1746 38.7164 25.1557 38.7164C23.5484 38.7164 22.2601 37.859 21.2629 36.7396C26.0289 33.3908 24.4978 28.0642 23.8548 26.3808C23.7698 26.1587 23.4488 26.1594 23.3008 26.366C22.515 27.4624 21.4786 28.2002 20.5102 28.8894L20.5092 28.8902L20.5087 28.8905C19.0968 29.8954 17.8298 30.7971 17.6969 32.5571C16.2224 31.5746 14.8303 31.9698 13.2528 32.4176C12.1817 32.7218 11.0251 33.0502 9.69925 32.988C9.44552 32.9762 9.24732 33.2283 9.37012 33.432Z" fill="#0546C3"/>
<path d="M33.4659 17.2576C34.2849 14.9741 38.9888 16.9683 40.1848 20.1099C40.236 20.2443 40.054 20.3283 39.9591 20.2202C37.6711 17.6154 33.6557 20.0083 33.4047 17.796C33.3843 17.6152 33.4044 17.4288 33.4659 17.2576Z" fill="#0546C3"/>
<path d="M47.3506 16.2437C46.5976 13.9125 42.665 16.0588 41.7002 18.9391C41.6559 19.0712 41.8377 19.1581 41.9371 19.0607C43.8095 17.2239 47.2818 18.5911 47.3746 16.4207C47.3771 16.3625 47.3684 16.2991 47.3506 16.2437Z" fill="#0546C3"/>
<path d="M42.2791 9.99964C39.0851 10.1018 38.1639 14.999 40.5619 17.7858C40.6429 17.8798 40.7914 17.8062 40.7806 17.6828C40.4006 13.3191 44.7053 13.099 43.4196 10.6689C43.1982 10.2507 42.7521 9.98452 42.2791 9.99964Z" fill="#0546C3"/>
<path d="M56.8009 32.2286C55.6292 31.4045 53.2903 32.703 48.7628 38.3624C44.2161 44.0459 41.0376 44.3675 39.9535 44.9284C39.8462 44.984 39.9601 45.201 40.079 45.1794C41.5169 44.9189 46.5527 43.8622 50.4251 41.3979C54.9454 38.5215 58.8199 33.6489 56.8009 32.2286Z" fill="white"/>
<ellipse cx="44.471" cy="35.5161" rx="1.50588" ry="1.50587" fill="white"/>
<defs>
<filter id="filter0_d_459_4134" x="0" y="0" width="72" height="72" filterUnits="userSpaceOnUse" color-interpolation-filters="sRGB">
<feFlood flood-opacity="0" result="BackgroundImageFix"/>
<feColorMatrix in="SourceAlpha" type="matrix" values="0 0 0 0 0 0 0 0 0 0 0 0 0 0 0 0 0 0 127 0" result="hardAlpha"/>
<feOffset dy="2"/>
<feGaussianBlur stdDeviation="2"/>
<feComposite in2="hardAlpha" operator="out"/>
<feColorMatrix type="matrix" values="0 0 0 0 0 0 0 0 0 0 0 0 0 0 0 0 0 0 0.15 0"/>
<feBlend mode="normal" in2="BackgroundImageFix" result="effect1_dropShadow_459_4134"/>
<feBlend mode="normal" in="SourceGraphic" in2="effect1_dropShadow_459_4134" result="shape"/>
</filter>
</defs>
</svg>
